<svg width="16" height="16" viewBox="0 0 16 16" fill="none" xmlns="http://www.w3.org/2000/svg">
<g id="Information Circle" clip-path="url(#clip0_10_1734)">
<g id="information-circle--information-frame-info-more-help-point-circle">
<path id="Vector" d="M7.99986 15.4287C12.1026 15.4287 15.4284 12.1028 15.4284 8.0001C15.4284 3.89742 12.1026 0.571533 7.99986 0.571533C3.89717 0.571533 0.571289 3.89742 0.571289 8.0001C0.571289 12.1028 3.89717 15.4287 7.99986 15.4287Z" stroke="#A1ABBB" stroke-width="1.14286" stroke-linecap="round" stroke-linejoin="round"/>
<path id="Vector_2" d="M6.28564 11.4287H9.71422" stroke="#A1ABBB" stroke-width="1.14286" stroke-linecap="round" stroke-linejoin="round"/>
<path id="Vector_3" d="M7.99979 11.4287V7.42871H6.85693" stroke="#A1ABBB" stroke-width="1.14286" stroke-linecap="round" stroke-linejoin="round"/>
<g id="Group 2605">
<path id="Ellipse 1111" d="M8.00007 4.85732C7.84228 4.85732 7.71436 4.7294 7.71436 4.5716C7.71436 4.41381 7.84228 4.28589 8.00007 4.28589" stroke="#A1ABBB" stroke-width="1.14286" stroke-linecap="round" stroke-linejoin="round"/>
<path id="Ellipse 1112" d="M8 4.85732C8.15779 4.85732 8.28571 4.7294 8.28571 4.5716C8.28571 4.41381 8.15779 4.28589 8 4.28589" stroke="#A1ABBB" stroke-width="1.14286" stroke-linecap="round" stroke-linejoin="round"/>
</g>
</g>
</g>
<defs>
<clipPath id="clip0_10_1734">
<rect width="16" height="16" fill="white"/>
</clipPath>
</defs>
</svg>
